<svg width="1500" height="500" viewBox="0 0 1500 500" fill="none" xmlns="http://www.w3.org/2000/svg">
<rect width="1500" height="500" fill="black"/>
<rect width="1500" height="500" fill="white"/>
<path d="M563.759 146.582H592.973L638.947 209.088L688.544 146.582H716.626L652.309 226.526L718.438 311H688.77L637.814 243.285L587.085 311H557.191L624.906 226.753L563.759 146.582Z" fill="#141414"/>
<path d="M738.516 311V146.582H869.19V168.097H761.843V216.109H862.622V237.623H761.843V289.485H870.775V311H738.516Z" fill="#141414"/>
<path d="M923.734 146.582V289.485H1024.29V311H900.407V146.582H923.734Z" fill="#141414"/>
<path d="M1071.29 146.582V311H1047.97V146.582H1071.29Z" fill="#141414"/>
<path d="M1243.44 194.368H1220.34C1219.59 183.799 1215.59 176.099 1208.34 171.268C1201.25 166.285 1190.53 163.794 1176.18 163.794C1161.99 163.794 1151.27 166.059 1144.02 170.588C1136.78 175.118 1133.15 181.534 1133.15 189.838C1133.15 196.33 1135.42 201.237 1139.95 204.559C1144.48 207.729 1151.95 210.296 1162.37 212.259L1198.38 219.279C1216.49 222.752 1229.55 227.734 1237.56 234.226C1245.56 240.719 1249.56 250.608 1249.56 263.894C1249.56 279.898 1243.37 292.505 1230.99 301.715C1218.61 310.773 1201.02 315.303 1178.22 315.303C1153.61 315.303 1134.97 310.245 1122.28 300.129C1109.6 290.014 1103.26 275.142 1103.26 255.515H1127.94C1128.85 281.03 1146.06 293.788 1179.58 293.788C1194.22 293.788 1205.47 291.372 1213.32 286.541C1221.17 281.559 1225.1 274.689 1225.1 265.932C1225.1 259.289 1222.84 254.156 1218.31 250.532C1213.93 246.909 1206.76 244.267 1196.79 242.606L1156.25 235.359C1139.95 232.49 1127.94 227.659 1120.24 220.865C1112.54 213.92 1108.69 204.257 1108.69 191.876C1108.69 176.325 1114.58 164.172 1126.36 155.415C1138.29 146.658 1155.5 142.279 1177.99 142.279C1198.98 142.279 1215.14 146.809 1226.46 155.868C1237.78 164.926 1243.44 177.76 1243.44 194.368Z" fill="#141414"/>
<path fill-rule="evenodd" clip-rule="evenodd" d="M365.244 353.305L491.488 227.061L376.653 112.226L394.426 155.248L466.239 227.061L365.244 328.056L264.249 227.061L336.223 154.074L353.9 112.16L239 227.061L365.244 353.305Z" fill="#141414"/>
<path d="M365.244 328.056L353.9 112.16L336.223 154.074L365.244 328.056Z" fill="#141414"/>
<path d="M376.653 112.226L365.244 328.056L394.426 155.248L376.653 112.226Z" fill="#141414"/>
</svg>
