<svg width="1080" height="1080" viewBox="0 0 1080 1080" fill="none" xmlns="http://www.w3.org/2000/svg">
<g clip-path="url(#clip0_1366_6107)">
<rect width="1080" height="1080" fill="black"/>
<g filter="url(#filter0_f_1366_6107)">
<ellipse cx="330.094" cy="111.687" rx="476.094" ry="161.144" fill="#00AA96" fill-opacity="0.6"/>
</g>
<g filter="url(#filter1_f_1366_6107)">
<circle cx="785.446" cy="469.054" r="409.063" fill="#00AA81" fill-opacity="0.6"/>
</g>
<g filter="url(#filter2_f_1366_6107)">
<circle cx="975.671" cy="37.3276" r="434.328" fill="#057C84" fill-opacity="0.7"/>
</g>
<g filter="url(#filter3_f_1366_6107)">
<circle cx="-66.6724" cy="1092.33" r="434.328" fill="#057C84" fill-opacity="0.3"/>
</g>
<path d="M-0.947271 1081.04L-2 -2L1081.04 -0.947271L1082 984.779L106.409 106.41L977.788 729.063L972.843 107.252L106.409 106.41L107.252 972.844L723.329 973.442L106.409 106.41L984.215 1082L-0.947271 1081.04Z" fill="url(#paint0_linear_1366_6107)" fill-opacity="0.24"/>
<path d="M244.363 473.78H232.998C232.998 465.01 235.524 458.311 240.575 453.681C245.626 449.05 252.887 446.735 262.358 446.735C271.267 446.735 278.247 448.91 283.298 453.26C288.35 457.539 290.875 463.292 290.875 470.517C290.875 476.901 288.946 482.093 285.087 486.092C281.229 490.09 275.862 493.703 268.987 496.93C264.076 499.245 259.095 502.017 254.044 505.244C248.993 508.401 246.012 511.031 245.1 513.136H289.823V523.133H231.735C231.735 516.117 234.086 510.119 238.786 505.138C243.556 500.157 250.046 495.668 258.254 491.669C266.532 487.6 272.214 484.197 275.301 481.461C278.458 478.655 280.036 475.042 280.036 470.623C280.036 466.413 278.388 462.976 275.09 460.31C271.793 457.574 267.514 456.206 262.252 456.206C256.57 456.206 252.15 457.714 248.993 460.731C245.906 463.748 244.363 468.097 244.363 473.78ZM309.175 456.837C314.506 450.103 322.048 446.735 331.799 446.735C341.55 446.735 349.092 450.103 354.424 456.837C359.755 463.572 362.421 473.253 362.421 485.881C362.421 498.509 359.755 508.225 354.424 515.03C349.092 521.765 341.55 525.132 331.799 525.132C322.048 525.132 314.506 521.765 309.175 515.03C303.913 508.225 301.282 498.509 301.282 485.881C301.282 473.253 303.913 463.572 309.175 456.837ZM331.904 456.732C318.715 456.732 312.121 466.449 312.121 485.881C312.121 505.384 318.715 515.135 331.904 515.135C338.569 515.135 343.515 512.75 346.742 507.98C349.969 503.139 351.582 495.773 351.582 485.881C351.582 476.06 349.969 468.764 346.742 463.993C343.515 459.153 338.569 456.732 331.904 456.732ZM377.353 523.133V510.505H389.981V523.133H377.353ZM412.917 456.837C418.249 450.103 425.79 446.735 435.542 446.735C445.293 446.735 452.835 450.103 458.166 456.837C463.498 463.572 466.164 473.253 466.164 485.881C466.164 498.509 463.498 508.225 458.166 515.03C452.835 521.765 445.293 525.132 435.542 525.132C425.79 525.132 418.249 521.765 412.917 515.03C407.656 508.225 405.025 498.509 405.025 485.881C405.025 473.253 407.656 463.572 412.917 456.837ZM435.647 456.732C422.458 456.732 415.864 466.449 415.864 485.881C415.864 505.384 422.458 515.135 435.647 515.135C442.312 515.135 447.257 512.75 450.485 507.98C453.712 503.139 455.325 495.773 455.325 485.881C455.325 476.06 453.712 468.764 450.485 463.993C447.257 459.153 442.312 456.732 435.647 456.732ZM513.402 494.931V459.994L484.463 494.931H513.402ZM513.823 448.629H523.609V494.931H536.342V504.402H523.609V523.133H513.402V504.402H474.046V494.3L513.823 448.629ZM550.643 523.133V510.505H563.27V523.133H550.643ZM590.942 473.78H579.577C579.577 465.01 582.103 458.311 587.154 453.681C592.205 449.05 599.466 446.735 608.937 446.735C617.846 446.735 624.826 448.91 629.877 453.26C634.928 457.539 637.454 463.292 637.454 470.517C637.454 476.901 635.525 482.093 631.666 486.092C627.808 490.09 622.441 493.703 615.566 496.93C610.655 499.245 605.674 502.017 600.623 505.244C595.572 508.401 592.591 511.031 591.679 513.136H636.402V523.133H578.314C578.314 516.117 580.665 510.119 585.365 505.138C590.135 500.157 596.625 495.668 604.833 491.669C613.111 487.6 618.793 484.197 621.88 481.461C625.037 478.655 626.615 475.042 626.615 470.623C626.615 466.413 624.967 462.976 621.669 460.31C618.372 457.574 614.093 456.206 608.831 456.206C603.149 456.206 598.729 457.714 595.572 460.731C592.485 463.748 590.942 468.097 590.942 473.78ZM655.753 456.837C661.085 450.103 668.627 446.735 678.378 446.735C688.129 446.735 695.671 450.103 701.003 456.837C706.334 463.572 709 473.253 709 485.881C709 498.509 706.334 508.225 701.003 515.03C695.671 521.765 688.129 525.132 678.378 525.132C668.627 525.132 661.085 521.765 655.753 515.03C650.492 508.225 647.861 498.509 647.861 485.881C647.861 473.253 650.492 463.572 655.753 456.837ZM678.483 456.732C665.294 456.732 658.7 466.449 658.7 485.881C658.7 505.384 665.294 515.135 678.483 515.135C685.148 515.135 690.094 512.75 693.321 507.98C696.548 503.139 698.161 495.773 698.161 485.881C698.161 476.06 696.548 468.764 693.321 463.993C690.094 459.153 685.148 456.732 678.483 456.732ZM730.036 473.78H718.671C718.671 465.01 721.196 458.311 726.247 453.681C731.298 449.05 738.559 446.735 748.03 446.735C756.94 446.735 763.92 448.91 768.971 453.26C774.022 457.539 776.548 463.292 776.548 470.517C776.548 476.901 774.618 482.093 770.76 486.092C766.902 490.09 761.535 493.703 754.66 496.93C749.749 499.245 744.768 502.017 739.717 505.244C734.666 508.401 731.684 511.031 730.772 513.136H775.495V523.133H717.408C717.408 516.117 719.758 510.119 724.458 505.138C729.229 500.157 735.718 495.668 743.926 491.669C752.204 487.6 757.887 484.197 760.974 481.461C764.13 478.655 765.709 475.042 765.709 470.623C765.709 466.413 764.06 462.976 760.763 460.31C757.466 457.574 753.186 456.206 747.925 456.206C742.242 456.206 737.823 457.714 734.666 460.731C731.579 463.748 730.036 468.097 730.036 473.78ZM825.785 494.931V459.994L796.846 494.931H825.785ZM826.206 448.629H835.992V494.931H848.725V504.402H835.992V523.133H825.785V504.402H786.429V494.3L826.206 448.629Z" fill="white"/>
<path d="M384.006 604.311H389.958C389.958 610.362 393.454 613.387 400.448 613.387C403.905 613.387 406.597 612.7 408.522 611.324C410.447 609.949 411.409 608.083 411.409 605.726C411.409 600.775 407.481 598.3 399.623 598.3H397.089V593.527H399.387C406.341 593.527 409.818 591.425 409.818 587.221C409.818 585.099 409.013 583.39 407.402 582.094C405.791 580.758 403.591 580.09 400.801 580.09C397.658 580.09 395.242 580.836 393.553 582.329C391.863 583.822 391.019 586.062 391.019 589.048H384.89C384.89 584.451 386.245 580.935 388.956 578.499C391.706 576.024 395.615 574.786 400.684 574.786C405.32 574.786 409.013 575.886 411.763 578.086C414.513 580.247 415.888 583.037 415.888 586.455C415.888 591.209 413.393 594.234 408.404 595.53C411.429 595.805 413.727 596.788 415.299 598.477C416.91 600.127 417.715 602.367 417.715 605.195C417.715 609.281 416.203 612.562 413.177 615.037C410.191 617.473 406.027 618.691 400.684 618.691C389.565 618.691 384.006 613.996 384.006 604.606V604.311ZM449.002 585.865V590.639C451.87 586.789 455.956 584.864 461.26 584.864C466.249 584.864 470.316 586.455 473.459 589.637C476.641 592.78 478.232 596.827 478.232 601.777C478.232 606.688 476.641 610.696 473.459 613.8C470.316 616.903 466.23 618.455 461.201 618.455C456.29 618.455 452.223 616.609 449.002 612.916V628.827H443.285V585.865H449.002ZM469.039 593.291C466.996 591.209 464.187 590.167 460.611 590.167C457.036 590.167 454.207 591.228 452.125 593.35C450.043 595.432 449.002 598.241 449.002 601.777C449.002 605.274 450.043 608.044 452.125 610.087C454.207 612.13 457.036 613.151 460.611 613.151C464.187 613.151 466.996 612.149 469.039 610.146C471.121 608.103 472.162 605.313 472.162 601.777C472.162 598.202 471.121 595.373 469.039 593.291ZM489.792 585.865V591.346C493.328 587.024 497.689 584.864 502.875 584.864C505.822 584.864 508.258 585.492 510.183 586.749C512.147 587.967 513.463 589.676 514.131 591.877C517.903 587.201 522.401 584.864 527.627 584.864C532.184 584.864 535.327 586.081 537.056 588.517C538.824 590.953 539.708 594.587 539.708 599.42V617.571H533.992V599.184C533.992 595.884 533.422 593.487 532.283 591.994C531.143 590.462 529.179 589.696 526.389 589.696C523.01 589.696 520.201 590.796 517.962 592.996C515.762 595.157 514.662 597.986 514.662 601.483V617.571H509.122V599.184C509.122 595.884 508.552 593.487 507.413 591.994C506.273 590.462 504.309 589.696 501.52 589.696C498.141 589.696 495.332 590.796 493.092 592.996C490.892 595.157 489.792 597.986 489.792 601.483V617.571H484.075V585.865H489.792ZM567.34 574.786H573.41V599.066C573.41 603.82 574.432 607.356 576.475 609.674C578.557 611.953 581.798 613.092 586.199 613.092C590.638 613.092 593.899 611.933 595.982 609.615C598.064 607.297 599.105 603.781 599.105 599.066V574.786H605.175V601.6C605.175 607.179 603.564 611.423 600.343 614.33C597.121 617.237 592.426 618.691 586.258 618.691C580.089 618.691 575.394 617.237 572.173 614.33C568.951 611.423 567.34 607.179 567.34 601.6V574.786ZM609.455 574.786H648.174V580.385H631.849V617.571H625.779V580.385H609.455V574.786ZM695.215 601.011C694.665 606.354 692.426 610.637 688.497 613.859C684.568 617.08 679.579 618.691 673.528 618.691C666.299 618.691 660.582 616.648 656.379 612.562C652.214 608.476 650.132 603.015 650.132 596.179C650.132 589.303 652.214 583.842 656.379 579.795C660.582 575.709 666.319 573.666 673.587 573.666C679.52 573.666 684.411 575.199 688.261 578.263C692.151 581.328 694.312 585.355 694.744 590.344H688.438C687.849 586.926 686.238 584.255 683.606 582.329C680.973 580.365 677.614 579.383 673.528 579.383C668.146 579.383 663.942 580.876 660.916 583.862C657.93 586.808 656.438 590.914 656.438 596.179C656.438 601.443 657.93 605.569 660.916 608.555C663.942 611.501 668.165 612.975 673.587 612.975C677.791 612.975 681.268 611.894 684.018 609.733C686.768 607.533 688.399 604.626 688.91 601.011H695.215Z" fill="white"/>
<path d="M385.677 980.834H392.545L404.95 1008.84L417.666 980.834H424.444V1013H420.014V984.778L407.254 1013H402.646L390.108 984.778V1013H385.677V980.834ZM449.034 1000.77C447.912 1001.45 445.505 1002 441.813 1002.41C439.125 1002.71 437.249 1003.09 436.186 1003.56C435.123 1004.04 434.591 1004.94 434.591 1006.27C434.591 1007.42 435.049 1008.33 435.964 1009.01C436.91 1009.69 438.209 1010.03 439.863 1010.03C442.522 1010.03 444.707 1009.47 446.42 1008.35C448.163 1007.23 449.034 1005.88 449.034 1004.32V1000.77ZM449.167 1009.32C446.893 1012.22 443.555 1013.66 439.154 1013.66C436.201 1013.66 433.941 1013.03 432.376 1011.76C430.81 1010.49 430.027 1008.73 430.027 1006.49C430.027 1005.39 430.19 1004.45 430.515 1003.65C430.869 1002.85 431.327 1002.2 431.888 1001.7C432.479 1001.2 433.262 1000.77 434.236 1000.42C435.241 1000.03 436.245 999.753 437.249 999.576C438.253 999.398 439.509 999.221 441.015 999.044C441.429 998.985 441.975 998.926 442.654 998.867C443.334 998.808 443.836 998.763 444.161 998.734C444.486 998.704 444.899 998.66 445.401 998.601C445.933 998.512 446.317 998.438 446.553 998.379C446.79 998.32 447.07 998.232 447.395 998.113C447.75 997.995 448.001 997.877 448.148 997.759C448.296 997.611 448.444 997.449 448.591 997.272C448.769 997.065 448.887 996.843 448.946 996.607C449.005 996.341 449.034 996.046 449.034 995.721C449.034 994.451 448.517 993.521 447.484 992.93C446.479 992.339 444.899 992.044 442.743 992.044C440.321 992.044 438.519 992.428 437.338 993.196C436.186 993.934 435.551 995.145 435.433 996.829H430.958C431.253 991.217 435.078 988.411 442.433 988.411C446.42 988.411 449.226 989.001 450.851 990.183C452.505 991.364 453.332 993.402 453.332 996.297V1005.96C453.332 1007.26 453.48 1008.2 453.775 1008.79C454.1 1009.35 454.661 1009.63 455.459 1009.63C455.784 1009.63 456.212 1009.59 456.743 1009.5V1012.96C455.473 1013.16 454.336 1013.27 453.332 1013.27C450.999 1013.27 449.61 1011.95 449.167 1009.32ZM464.976 989.164V1013H460.678V989.164H464.976ZM464.976 986.062H460.678V980.834H464.976V986.062ZM475.557 989.164V993.284C478.009 990.035 481.273 988.411 485.349 988.411C488.745 988.411 491.094 989.297 492.393 991.069C493.722 992.841 494.387 995.426 494.387 998.822V1013H490.089V999.177C490.089 996.696 489.661 994.894 488.804 993.772C487.948 992.62 486.471 992.044 484.374 992.044C481.834 992.044 479.722 992.871 478.038 994.525C476.384 996.149 475.557 998.276 475.557 1000.9V1013H471.26V989.164H475.557ZM504.622 989.164V993.284C507.074 990.035 510.337 988.411 514.414 988.411C517.81 988.411 520.158 989.297 521.458 991.069C522.787 992.841 523.452 995.426 523.452 998.822V1013H519.154V999.177C519.154 996.696 518.726 994.894 517.869 993.772C517.013 992.62 515.536 992.044 513.439 992.044C510.899 992.044 508.787 992.871 507.103 994.525C505.449 996.149 504.622 998.276 504.622 1000.9V1013H500.325V989.164H504.622ZM553.89 1001.97H532.402C532.402 1004.3 533.185 1006.18 534.75 1007.59C536.316 1008.98 538.369 1009.68 540.909 1009.68C542.799 1009.68 544.409 1009.32 545.738 1008.61C547.097 1007.9 548.012 1006.9 548.485 1005.6H553.491C552.664 1008.17 551.143 1010.16 548.928 1011.58C546.742 1012.97 544.069 1013.66 540.909 1013.66C536.892 1013.66 533.702 1012.54 531.339 1010.3C529.005 1008.02 527.839 1004.97 527.839 1001.13C527.839 997.257 529.02 994.17 531.383 991.866C533.746 989.563 536.921 988.411 540.909 988.411C544.985 988.411 548.16 989.548 550.434 991.822C552.738 994.067 553.89 997.168 553.89 1001.13V1001.97ZM532.491 998.911H549.282C548.957 996.873 548.057 995.278 546.58 994.126C545.103 992.974 543.213 992.398 540.909 992.398C538.634 992.398 536.744 992.974 535.238 994.126C533.761 995.278 532.845 996.873 532.491 998.911ZM560.275 983.094H564.573V989.164H570.421V992.797H564.573V1006.93C564.573 1007.93 564.794 1008.64 565.237 1009.06C565.68 1009.47 566.433 1009.68 567.497 1009.68C568.412 1009.68 569.387 1009.56 570.421 1009.32V1013.27C568.678 1013.53 567.349 1013.66 566.433 1013.66C564.336 1013.66 562.786 1013.22 561.781 1012.34C560.777 1011.42 560.275 1010.03 560.275 1008.17V992.797H556.11V989.164H560.275V983.094ZM614.781 990.183H610.262C610.114 988.115 609.331 986.609 607.914 985.664C606.525 984.689 604.428 984.202 601.622 984.202C598.846 984.202 596.749 984.645 595.331 985.531C593.913 986.417 593.204 987.672 593.204 989.297C593.204 990.567 593.647 991.527 594.534 992.177C595.42 992.797 596.882 993.299 598.92 993.683L605.964 995.056C609.509 995.736 612.064 996.71 613.629 997.981C615.194 999.251 615.977 1001.19 615.977 1003.78C615.977 1006.92 614.766 1009.38 612.344 1011.18C609.922 1012.96 606.481 1013.84 602.021 1013.84C597.207 1013.84 593.559 1012.85 591.078 1010.87C588.597 1008.89 587.356 1005.99 587.356 1002.15H592.185C592.363 1007.14 595.73 1009.63 602.287 1009.63C605.152 1009.63 607.352 1009.16 608.888 1008.22C610.424 1007.24 611.192 1005.9 611.192 1004.18C611.192 1002.88 610.749 1001.88 609.863 1001.17C609.007 1000.46 607.604 999.945 605.654 999.62L597.723 998.202C594.534 997.641 592.185 996.696 590.679 995.367C589.173 994.008 588.419 992.118 588.419 989.695C588.419 986.653 589.571 984.275 591.875 982.562C594.209 980.849 597.576 979.993 601.977 979.993C606.082 979.993 609.243 980.879 611.458 982.651C613.673 984.423 614.781 986.934 614.781 990.183ZM622.894 983.094H627.192V989.164H633.04V992.797H627.192V1006.93C627.192 1007.93 627.413 1008.64 627.856 1009.06C628.299 1009.47 629.052 1009.68 630.116 1009.68C631.031 1009.68 632.006 1009.56 633.04 1009.32V1013.27C631.297 1013.53 629.968 1013.66 629.052 1013.66C626.955 1013.66 625.405 1013.22 624.4 1012.34C623.396 1011.42 622.894 1010.03 622.894 1008.17V992.797H618.729V989.164H622.894V983.094ZM654.761 1000.77C653.638 1001.45 651.231 1002 647.539 1002.41C644.851 1002.71 642.976 1003.09 641.912 1003.56C640.849 1004.04 640.317 1004.94 640.317 1006.27C640.317 1007.42 640.775 1008.33 641.691 1009.01C642.636 1009.69 643.936 1010.03 645.59 1010.03C648.248 1010.03 650.434 1009.47 652.147 1008.35C653.889 1007.23 654.761 1005.88 654.761 1004.32V1000.77ZM654.894 1009.32C652.619 1012.22 649.282 1013.66 644.881 1013.66C641.927 1013.66 639.668 1013.03 638.102 1011.76C636.537 1010.49 635.754 1008.73 635.754 1006.49C635.754 1005.39 635.916 1004.45 636.241 1003.65C636.596 1002.85 637.054 1002.2 637.615 1001.7C638.205 1001.2 638.988 1000.77 639.963 1000.42C640.967 1000.03 641.971 999.753 642.976 999.576C643.98 999.398 645.235 999.221 646.742 999.044C647.155 998.985 647.702 998.926 648.381 998.867C649.06 998.808 649.562 998.763 649.887 998.734C650.212 998.704 650.626 998.66 651.128 998.601C651.659 998.512 652.043 998.438 652.28 998.379C652.516 998.32 652.797 998.232 653.122 998.113C653.476 997.995 653.727 997.877 653.875 997.759C654.022 997.611 654.17 997.449 654.318 997.272C654.495 997.065 654.613 996.843 654.672 996.607C654.731 996.341 654.761 996.046 654.761 995.721C654.761 994.451 654.244 993.521 653.21 992.93C652.206 992.339 650.626 992.044 648.469 992.044C646.047 992.044 644.246 992.428 643.064 993.196C641.912 993.934 641.277 995.145 641.159 996.829H636.684C636.98 991.217 640.805 988.411 648.159 988.411C652.147 988.411 654.953 989.001 656.577 990.183C658.231 991.364 659.058 993.402 659.058 996.297V1005.96C659.058 1007.26 659.206 1008.2 659.501 1008.79C659.826 1009.35 660.388 1009.63 661.185 1009.63C661.51 1009.63 661.938 1009.59 662.47 1009.5V1012.96C661.2 1013.16 660.063 1013.27 659.058 1013.27C656.725 1013.27 655.337 1011.95 654.894 1009.32ZM670.348 989.164V993.196C672.563 990.006 675.487 988.411 679.12 988.411C679.888 988.411 680.523 988.544 681.025 988.809V993.329C679.932 993.004 678.898 992.841 677.924 992.841C675.827 992.841 674.04 993.639 672.563 995.234C671.086 996.829 670.348 998.867 670.348 1001.35V1013H666.05V989.164H670.348ZM685.556 983.094H689.854V989.164H695.702V992.797H689.854V1006.93C689.854 1007.93 690.075 1008.64 690.519 1009.06C690.962 1009.47 691.715 1009.68 692.778 1009.68C693.694 1009.68 694.668 1009.56 695.702 1009.32V1013.27C693.96 1013.53 692.63 1013.66 691.715 1013.66C689.618 1013.66 688.067 1013.22 687.063 1012.34C686.058 1011.42 685.556 1010.03 685.556 1008.17V992.797H681.392V989.164H685.556V983.094Z" fill="white"/>
<path d="M60 61H90M61 60L61 90" stroke="white" stroke-opacity="0.5" stroke-width="2"/>
<path d="M1020 61H990M1019 60L1019 90" stroke="white" stroke-opacity="0.5" stroke-width="2"/>
<path d="M60 1019H90M61 1020L61 990" stroke="white" stroke-opacity="0.5" stroke-width="2"/>
<path d="M1020 1019H990M1019 1020L1019 990" stroke="white" stroke-opacity="0.5" stroke-width="2"/>
<path d="M532.426 76.9494H536.969L544.119 86.6702L551.833 76.9494H556.2L546.197 89.3822L556.482 102.52H551.868L543.943 91.9886L536.054 102.52H531.405L541.936 89.4175L532.426 76.9494ZM559.604 102.52V76.9494H579.927V80.2953H563.232V87.7621H578.905V91.108H563.232V99.1736H580.173V102.52H559.604ZM588.409 76.9494V99.1736H604.047V102.52H584.781V76.9494H588.409ZM611.357 76.9494V102.52H607.73V76.9494H611.357ZM638.131 84.3809H634.538C634.421 82.7373 633.798 81.5398 632.671 80.7884C631.568 80.0135 629.901 79.6261 627.67 79.6261C625.463 79.6261 623.796 79.9783 622.669 80.6827C621.542 81.3872 620.978 82.3851 620.978 83.6765C620.978 84.6862 621.33 85.4493 622.035 85.9658C622.739 86.4589 623.901 86.8581 625.522 87.1633L631.122 88.2552C633.939 88.7952 635.97 89.5701 637.215 90.5797C638.459 91.5894 639.082 93.1274 639.082 95.1936C639.082 97.6826 638.119 99.6432 636.193 101.075C634.268 102.484 631.533 103.189 627.987 103.189C624.16 103.189 621.26 102.402 619.288 100.829C617.315 99.2558 616.329 96.9429 616.329 93.8905H620.168C620.309 97.8587 622.986 99.8428 628.198 99.8428C630.476 99.8428 632.225 99.4671 633.446 98.7157C634.667 97.9408 635.278 96.8725 635.278 95.5106C635.278 94.4775 634.925 93.6792 634.221 93.1156C633.54 92.5521 632.425 92.1412 630.875 91.8829L624.571 90.7558C622.035 90.3097 620.168 89.5583 618.971 88.5017C617.773 87.4216 617.174 85.9189 617.174 83.9935C617.174 81.575 618.09 79.6848 619.921 78.323C621.776 76.9611 624.453 76.2802 627.952 76.2802C631.216 76.2802 633.728 76.9846 635.489 78.3934C637.25 79.8022 638.131 81.7981 638.131 84.3809Z" fill="white"/>
<path fill-rule="evenodd" clip-rule="evenodd" d="M492.193 115.358L518.386 88.9947L494.56 65.0137L498.248 73.998L513.147 88.9947L492.193 110.085L471.239 88.9947L486.172 73.7529L489.839 65L466 88.9947L492.193 115.358Z" fill="white"/>
<path d="M492.193 110.085L489.839 65L486.172 73.7529L492.193 110.085Z" fill="white"/>
<path d="M494.56 65.0137L492.193 110.085L498.248 73.998L494.56 65.0137Z" fill="white"/>
</g>
<defs>
<filter id="filter0_f_1366_6107" x="-636" y="-539.457" width="1932.19" height="1302.29" filterUnits="userSpaceOnUse" color-interpolation-filters="sRGB">
<feFlood flood-opacity="0" result="BackgroundImageFix"/>
<feBlend mode="normal" in="SourceGraphic" in2="BackgroundImageFix" result="shape"/>
<feGaussianBlur stdDeviation="245" result="effect1_foregroundBlur_1366_6107"/>
</filter>
<filter id="filter1_f_1366_6107" x="-183.617" y="-500.009" width="1938.13" height="1938.13" filterUnits="userSpaceOnUse" color-interpolation-filters="sRGB">
<feFlood flood-opacity="0" result="BackgroundImageFix"/>
<feBlend mode="normal" in="SourceGraphic" in2="BackgroundImageFix" result="shape"/>
<feGaussianBlur stdDeviation="280" result="effect1_foregroundBlur_1366_6107"/>
</filter>
<filter id="filter2_f_1366_6107" x="81.3438" y="-857" width="1788.66" height="1788.66" filterUnits="userSpaceOnUse" color-interpolation-filters="sRGB">
<feFlood flood-opacity="0" result="BackgroundImageFix"/>
<feBlend mode="normal" in="SourceGraphic" in2="BackgroundImageFix" result="shape"/>
<feGaussianBlur stdDeviation="230" result="effect1_foregroundBlur_1366_6107"/>
</filter>
<filter id="filter3_f_1366_6107" x="-961" y="198" width="1788.65" height="1788.66" filterUnits="userSpaceOnUse" color-interpolation-filters="sRGB">
<feFlood flood-opacity="0" result="BackgroundImageFix"/>
<feBlend mode="normal" in="SourceGraphic" in2="BackgroundImageFix" result="shape"/>
<feGaussianBlur stdDeviation="230" result="effect1_foregroundBlur_1366_6107"/>
</filter>
<linearGradient id="paint0_linear_1366_6107" x1="1033.39" y1="1033.39" x2="-2.00099" y2="-1.99925" gradientUnits="userSpaceOnUse">
<stop/>
<stop offset="1" stop-opacity="0"/>
</linearGradient>
<clipPath id="clip0_1366_6107">
<rect width="1080" height="1080" fill="white"/>
</clipPath>
</defs>
</svg>
